<svg width="29" height="32" viewBox="0 0 29 32" fill="none" xmlns="http://www.w3.org/2000/svg">
<path d="M16.9167 11.7334C16.9167 11.6 16.9569 11.4723 17.0375 11.35C17.118 11.2278 17.2087 11.1445 17.3094 11.1C17.9135 10.8556 18.5328 10.6667 19.1672 10.5334C19.8016 10.4 20.4611 10.3334 21.1458 10.3334C21.5889 10.3334 22.0219 10.3612 22.4448 10.4167C22.8677 10.4723 23.2806 10.5556 23.6833 10.6667C23.8042 10.7112 23.9149 10.7945 24.0156 10.9167C24.1163 11.0389 24.1667 11.1778 24.1667 11.3334C24.1667 11.5778 24.0911 11.7667 23.9401 11.9C23.7891 12.0334 23.6028 12.0667 23.3812 12C23.0389 11.8889 22.6814 11.8056 22.3088 11.75C21.9363 11.6945 21.5486 11.6667 21.1458 11.6667C20.5618 11.6667 19.9979 11.7278 19.4542 11.85C18.9104 11.9723 18.3767 12.1556 17.8531 12.4C17.5712 12.5112 17.3446 12.5056 17.1734 12.3834C17.0023 12.2612 16.9167 12.0445 16.9167 11.7334ZM16.9167 19.0667C16.9167 18.9334 16.9569 18.8 17.0375 18.6667C17.118 18.5334 17.2087 18.4445 17.3094 18.4C17.9135 18.1556 18.5328 17.9723 19.1672 17.85C19.8016 17.7278 20.4611 17.6667 21.1458 17.6667C21.5889 17.6667 22.0219 17.6945 22.4448 17.75C22.8677 17.8056 23.2806 17.8889 23.6833 18C23.8042 18.0445 23.9149 18.1278 24.0156 18.25C24.1163 18.3723 24.1667 18.5112 24.1667 18.6667C24.1667 18.9112 24.0911 19.1 23.9401 19.2334C23.7891 19.3667 23.6028 19.4 23.3812 19.3334C23.0389 19.2223 22.6814 19.1389 22.3088 19.0834C21.9363 19.0278 21.5486 19 21.1458 19C20.5618 19 19.9979 19.0556 19.4542 19.1667C18.9104 19.2778 18.3767 19.4556 17.8531 19.7C17.5712 19.8112 17.3446 19.8112 17.1734 19.7C17.0023 19.5889 16.9167 19.3778 16.9167 19.0667ZM16.9167 15.4C16.9167 15.2667 16.9569 15.1389 17.0375 15.0167C17.118 14.8945 17.2087 14.8112 17.3094 14.7667C17.9135 14.5223 18.5328 14.3334 19.1672 14.2C19.8016 14.0667 20.4611 14 21.1458 14C21.5889 14 22.0219 14.0278 22.4448 14.0834C22.8677 14.1389 23.2806 14.2223 23.6833 14.3334C23.8042 14.3778 23.9149 14.4612 24.0156 14.5834C24.1163 14.7056 24.1667 14.8445 24.1667 15C24.1667 15.2445 24.0911 15.4334 23.9401 15.5667C23.7891 15.7 23.6028 15.7334 23.3812 15.6667C23.0389 15.5556 22.6814 15.4723 22.3088 15.4167C21.9363 15.3612 21.5486 15.3334 21.1458 15.3334C20.5618 15.3334 19.9979 15.3945 19.4542 15.5167C18.9104 15.6389 18.3767 15.8223 17.8531 16.0667C17.5712 16.1778 17.3446 16.1723 17.1734 16.05C17.0023 15.9278 16.9167 15.7112 16.9167 15.4ZM15.4667 23.6667C16.4736 23.1112 17.4604 22.6945 18.4271 22.4167C19.3937 22.1389 20.4208 22 21.5083 22C22.2736 22 23.0641 22.0667 23.8797 22.2C24.6953 22.3334 25.3951 22.5112 25.9792 22.7334V8.43337C25.2944 8.0556 24.5694 7.77782 23.8042 7.60004C23.0389 7.42226 22.2736 7.33337 21.5083 7.33337C20.4208 7.33337 19.3686 7.51671 18.3516 7.88337C17.3345 8.25004 16.3729 8.76671 15.4667 9.43337V23.6667ZM14.5604 26.3C14.3993 26.3 14.2533 26.2834 14.1224 26.25C13.9915 26.2167 13.8757 26.1556 13.775 26.0667C12.8285 25.4223 11.8215 24.9223 10.7542 24.5667C9.6868 24.2112 8.5993 24.0334 7.49166 24.0334C6.74652 24.0334 6.02152 24.1334 5.31666 24.3334C4.6118 24.5334 3.90694 24.7778 3.20208 25.0667C2.73888 25.3112 2.29079 25.2778 1.85781 24.9667C1.42482 24.6556 1.20833 24.2112 1.20833 23.6334V8.20004C1.20833 7.86671 1.27881 7.56115 1.41979 7.28337C1.56076 7.0056 1.77222 6.78893 2.05416 6.63337C2.89999 6.18893 3.78107 5.86115 4.69739 5.65004C5.61371 5.43893 6.54513 5.33337 7.49166 5.33337C8.76041 5.33337 9.99392 5.52226 11.1922 5.90004C12.3904 6.27782 13.5132 6.8556 14.5604 7.63337C15.5875 6.8556 16.6901 6.27782 17.8682 5.90004C19.0463 5.52226 20.2597 5.33337 21.5083 5.33337C22.4549 5.33337 23.3812 5.43893 24.2875 5.65004C25.1937 5.86115 26.0698 6.18893 26.9156 6.63337C27.1976 6.78893 27.4141 7.0056 27.5651 7.28337C27.7161 7.56115 27.7917 7.86671 27.7917 8.20004V23.6334C27.7917 24.2556 27.5651 24.7278 27.112 25.05C26.6588 25.3723 26.2108 25.3778 25.7677 25.0667C25.083 24.7556 24.3882 24.5056 23.6833 24.3167C22.9785 24.1278 22.2535 24.0334 21.5083 24.0334C20.4208 24.0334 19.3535 24.2112 18.3062 24.5667C17.259 24.9223 16.2722 25.4223 15.3458 26.0667C15.2451 26.1556 15.1293 26.2167 14.9984 26.25C14.8675 26.2834 14.7215 26.3 14.5604 26.3Z" fill="#4FE7FC"/>
</svg>
