<svg width="29" height="32" viewBox="0 0 29 32" fill="none" xmlns="http://www.w3.org/2000/svg">
<path d="M16.0406 29.3333C15.5774 29.3333 15.2401 29.1666 15.0286 28.8333C14.8172 28.5 14.792 28.0888 14.9531 27.6L19.3937 14.6C19.5146 14.2444 19.7361 13.9444 20.0583 13.7C20.3806 13.4555 20.7128 13.3333 21.0552 13.3333C21.3976 13.3333 21.7349 13.4555 22.0672 13.7C22.3995 13.9444 22.626 14.2444 22.7469 14.6L27.2781 27.4666C27.4594 27.9777 27.4392 28.4166 27.2177 28.7833C26.9962 29.15 26.6236 29.3333 26.1 29.3333C25.8785 29.3333 25.667 29.2555 25.4656 29.1C25.2642 28.9444 25.1233 28.7444 25.0427 28.5L24.0458 25.1333H18.2458L17.0979 28.5333C17.0174 28.7555 16.8764 28.9444 16.675 29.1C16.4736 29.2555 16.2621 29.3333 16.0406 29.3333ZM18.9104 22.8H23.2L21.0854 16.3333H21.025L18.9104 22.8ZM8.7302 11.4C9.03229 11.9777 9.36458 12.5388 9.72708 13.0833C10.0896 13.6277 10.4823 14.1888 10.9052 14.7666C11.8115 13.7222 12.5667 12.6388 13.1708 11.5166C13.775 10.3944 14.2885 9.22218 14.7115 7.99996H2.41666C2.0743 7.99996 1.78732 7.87218 1.55572 7.61663C1.32413 7.36107 1.20833 7.0444 1.20833 6.66663C1.20833 6.28885 1.32413 5.97218 1.55572 5.71663C1.78732 5.46107 2.0743 5.33329 2.41666 5.33329H9.66666V3.99996C9.66666 3.62218 9.78246 3.30551 10.0141 3.04996C10.2457 2.7944 10.5326 2.66663 10.875 2.66663C11.2174 2.66663 11.5043 2.7944 11.7359 3.04996C11.9675 3.30551 12.0833 3.62218 12.0833 3.99996V5.33329H19.3333C19.6757 5.33329 19.9627 5.46107 20.1943 5.71663C20.4259 5.97218 20.5417 6.28885 20.5417 6.66663C20.5417 7.0444 20.4259 7.36107 20.1943 7.61663C19.9627 7.87218 19.6757 7.99996 19.3333 7.99996H17.1281C16.6851 9.53329 16.096 11.0388 15.3609 12.5166C14.6259 13.9944 13.7246 15.4 12.6573 16.7333L15.6177 20.0333L14.7115 22.7333L10.875 18.6666L5.64895 24.4333C5.42743 24.6777 5.15555 24.8 4.83333 24.8C4.51111 24.8 4.23923 24.6666 4.0177 24.4C3.77604 24.1555 3.6552 23.8555 3.6552 23.5C3.6552 23.1444 3.77604 22.8333 4.0177 22.5666L9.33437 16.7C8.81076 16.0111 8.31736 15.3166 7.85416 14.6166C7.39097 13.9166 6.96805 13.2 6.58541 12.4666C6.34374 11.9777 6.32361 11.5555 6.525 11.2C6.72638 10.8444 7.08888 10.6666 7.6125 10.6666C7.83402 10.6666 8.05052 10.7388 8.26197 10.8833C8.47343 11.0277 8.62951 11.2 8.7302 11.4Z" fill="#4FE7FC"/>
</svg>
