<svg width="314" height="48" viewBox="0 0 314 48" fill="none" xmlns="http://www.w3.org/2000/svg">
<path d="M15.752 4.01599V4.97599C14.664 5.00799 13.832 5.13599 13.256 5.35999C12.712 5.55199 12.344 5.93599 12.152 6.51199C11.96 7.05599 11.864 7.91999 11.864 9.10399V33.488C11.864 34.48 11.928 35.216 12.056 35.696C12.216 36.176 12.504 36.496 12.92 36.656C13.368 36.816 14.024 36.896 14.888 36.896H17.24C18.328 36.896 19.352 36.64 20.312 36.128C21.272 35.616 22.136 34.896 22.904 33.968C23.672 33.008 24.312 31.872 24.824 30.56C25.336 29.248 25.72 27.792 25.976 26.192H27.08C26.984 27.28 26.936 28.688 26.936 30.416C26.936 31.152 26.952 32.224 26.984 33.632C27.016 35.04 27.112 36.496 27.272 38C25.64 37.936 23.8 37.904 21.752 37.904C19.704 37.872 17.88 37.856 16.28 37.856C15.48 37.856 14.456 37.856 13.208 37.856C11.96 37.856 10.616 37.872 9.17602 37.904C7.73602 37.904 6.28002 37.92 4.80802 37.952C3.33602 37.952 1.94402 37.968 0.632019 38V37.04C1.65602 36.976 2.42402 36.848 2.93602 36.656C3.44802 36.464 3.78402 36.08 3.94402 35.504C4.13602 34.928 4.23202 34.064 4.23202 32.912V9.10399C4.23202 7.91999 4.13602 7.05599 3.94402 6.51199C3.78402 5.93599 3.43202 5.55199 2.88802 5.35999C2.37602 5.13599 1.62402 5.00799 0.632019 4.97599V4.01599C1.43202 4.04799 2.50402 4.07999 3.84802 4.11199C5.22402 4.14399 6.68002 4.15999 8.21602 4.15999C9.62402 4.15999 11 4.14399 12.344 4.11199C13.72 4.07999 14.856 4.04799 15.752 4.01599Z" fill="#24201F"/>
<path d="M53.3998 12.656V32.768C53.3998 34.208 53.6238 35.28 54.0718 35.984C54.5198 36.656 55.3198 36.992 56.4718 36.992V38C55.4798 37.904 54.4878 37.856 53.4958 37.856C52.1518 37.856 50.9038 37.904 49.7518 38C48.5998 38.096 47.5118 38.272 46.4878 38.528V34.208C45.7198 35.808 44.6478 36.96 43.2718 37.664C41.9278 38.336 40.4238 38.672 38.7598 38.672C37.4158 38.672 36.3278 38.496 35.4958 38.144C34.6638 37.792 34.0078 37.344 33.5278 36.8C32.9838 36.192 32.5998 35.392 32.3758 34.4C32.1518 33.408 32.0398 32.128 32.0398 30.56V18.416C32.0398 16.976 31.8158 15.92 31.3678 15.248C30.9518 14.544 30.1518 14.192 28.9678 14.192V13.184C29.9918 13.28 30.9838 13.328 31.9438 13.328C33.2878 13.328 34.5358 13.28 35.6878 13.184C36.8718 13.056 37.9598 12.88 38.9518 12.656V32.528C38.9518 33.328 39.0158 34.032 39.1438 34.64C39.3038 35.248 39.5918 35.728 40.0078 36.08C40.4238 36.4 41.0318 36.56 41.8318 36.56C42.6958 36.56 43.4638 36.32 44.1358 35.84C44.8398 35.36 45.3998 34.704 45.8158 33.872C46.2638 33.008 46.4878 32.048 46.4878 30.992V18.416C46.4878 16.976 46.2638 15.92 45.8158 15.248C45.3998 14.544 44.5998 14.192 43.4158 14.192V13.184C44.4398 13.28 45.4318 13.328 46.3918 13.328C47.7358 13.328 48.9838 13.28 50.1358 13.184C51.3198 13.056 52.4078 12.88 53.3998 12.656Z" fill="#24201F"/>
<path d="M65.2291 38.336C63.7891 38.336 62.5891 38.064 61.6291 37.52C60.6691 36.976 59.9651 36.256 59.5171 35.36C59.0691 34.432 58.8451 33.424 58.8451 32.336C58.8451 30.96 59.1491 29.84 59.7571 28.976C60.3971 28.112 61.2131 27.408 62.2051 26.864C63.1971 26.32 64.2371 25.872 65.3251 25.52C66.4451 25.168 67.5011 24.832 68.4931 24.512C69.5171 24.16 70.3331 23.76 70.9411 23.312C71.5811 22.832 71.9011 22.224 71.9011 21.488V17.744C71.9011 16.912 71.7571 16.176 71.4691 15.536C71.2132 14.864 70.7971 14.352 70.2211 14C69.6771 13.648 68.9571 13.472 68.0611 13.472C67.4211 13.472 66.7811 13.568 66.1411 13.76C65.5011 13.92 64.9731 14.208 64.5571 14.624C65.4531 14.944 66.1411 15.44 66.6211 16.112C67.1331 16.752 67.3891 17.488 67.3891 18.32C67.3891 19.408 67.0051 20.272 66.2371 20.912C65.5011 21.552 64.6211 21.872 63.5971 21.872C62.4451 21.872 61.5651 21.52 60.9571 20.816C60.3811 20.08 60.0931 19.2 60.0931 18.176C60.0931 17.248 60.3171 16.48 60.7651 15.872C61.2451 15.264 61.9011 14.688 62.7331 14.144C63.6291 13.632 64.7011 13.232 65.9491 12.944C67.2291 12.656 68.6051 12.512 70.0771 12.512C71.5491 12.512 72.8771 12.672 74.0611 12.992C75.2451 13.28 76.2371 13.824 77.0371 14.624C77.7731 15.36 78.2531 16.272 78.4771 17.36C78.7011 18.416 78.8131 19.76 78.8131 21.392V34.448C78.8131 35.248 78.8931 35.808 79.0531 36.128C79.2132 36.416 79.4851 36.56 79.8691 36.56C80.1571 36.56 80.4291 36.48 80.6851 36.32C80.9731 36.16 81.2771 35.968 81.5971 35.744L82.0771 36.56C81.4051 37.136 80.6211 37.584 79.7251 37.904C78.8611 38.192 77.8851 38.336 76.7971 38.336C75.6131 38.336 74.6691 38.176 73.9651 37.856C73.2611 37.504 72.7491 37.04 72.4291 36.464C72.1411 35.888 71.9971 35.216 71.9971 34.448C71.2291 35.664 70.3011 36.624 69.2131 37.328C68.1251 38 66.7971 38.336 65.2291 38.336ZM68.6371 35.264C69.2771 35.264 69.8531 35.12 70.3651 34.832C70.9091 34.512 71.4211 34 71.9011 33.296V23.456C71.6131 23.936 71.2131 24.368 70.7011 24.752C70.1891 25.136 69.6451 25.536 69.0691 25.952C68.4931 26.336 67.9331 26.768 67.3891 27.248C66.8771 27.728 66.4611 28.32 66.1411 29.024C65.8211 29.728 65.6611 30.576 65.6611 31.568C65.6611 32.816 65.9331 33.744 66.4771 34.352C67.0211 34.96 67.7411 35.264 68.6371 35.264Z" fill="#24201F"/>
<path d="M101.305 12.512C102.649 12.512 103.737 12.688 104.569 13.04C105.433 13.36 106.105 13.808 106.585 14.384C107.097 14.992 107.465 15.776 107.689 16.736C107.945 17.696 108.073 18.992 108.073 20.624V33.536C108.073 34.88 108.297 35.792 108.745 36.272C109.225 36.752 110.025 36.992 111.145 36.992V38C110.537 37.968 109.625 37.936 108.409 37.904C107.193 37.84 105.993 37.808 104.809 37.808C103.593 37.808 102.393 37.84 101.209 37.904C100.057 37.936 99.1769 37.968 98.5689 38V36.992C99.5289 36.992 100.201 36.752 100.585 36.272C100.969 35.792 101.161 34.88 101.161 33.536V18.608C101.161 17.808 101.081 17.12 100.921 16.544C100.761 15.936 100.473 15.472 100.057 15.152C99.6409 14.8 99.0169 14.624 98.1849 14.624C97.3209 14.624 96.5209 14.864 95.7849 15.344C95.0809 15.824 94.5049 16.496 94.0569 17.36C93.6409 18.192 93.4329 19.136 93.4329 20.192V33.536C93.4329 34.88 93.6249 35.792 94.0089 36.272C94.4249 36.752 95.0969 36.992 96.0249 36.992V38C95.4489 37.968 94.6009 37.936 93.4809 37.904C92.3929 37.84 91.2569 37.808 90.0729 37.808C88.8569 37.808 87.6089 37.84 86.3289 37.904C85.0489 37.936 84.0889 37.968 83.4489 38V36.992C84.5689 36.992 85.3529 36.752 85.8009 36.272C86.2809 35.792 86.5209 34.88 86.5209 33.536V18.416C86.5209 16.976 86.2969 15.92 85.8489 15.248C85.4329 14.544 84.6329 14.192 83.4489 14.192V13.184C84.4729 13.28 85.4649 13.328 86.4249 13.328C87.7689 13.328 89.0169 13.28 90.1689 13.184C91.3529 13.056 92.4409 12.88 93.4329 12.656V16.976C94.2329 15.344 95.3209 14.192 96.6969 13.52C98.0729 12.848 99.6089 12.512 101.305 12.512Z" fill="#24201F"/>
<path d="M136.616 3.39199C138.504 3.39199 139.96 3.59999 140.984 4.01599C142.008 4.39999 142.888 4.81599 143.624 5.26399C144.008 5.48799 144.312 5.66399 144.536 5.79199C144.792 5.88799 145.032 5.93599 145.256 5.93599C145.576 5.93599 145.8 5.75999 145.928 5.40799C146.088 5.05599 146.216 4.52799 146.312 3.82399H147.416C147.384 4.43199 147.336 5.16799 147.272 6.03199C147.24 6.86399 147.208 7.96799 147.176 9.34399C147.176 10.72 147.176 12.528 147.176 14.768H146.072C145.944 13.104 145.56 11.488 144.92 9.91999C144.28 8.35199 143.368 7.07199 142.184 6.07999C141.032 5.05599 139.608 4.54399 137.912 4.54399C136.376 4.54399 135.112 4.97599 134.12 5.83999C133.128 6.70399 132.632 7.90399 132.632 9.43999C132.632 10.72 132.952 11.824 133.592 12.752C134.232 13.648 135.16 14.528 136.376 15.392C137.624 16.256 139.128 17.296 140.888 18.512C142.424 19.504 143.8 20.496 145.016 21.488C146.232 22.48 147.208 23.6 147.944 24.848C148.68 26.096 149.048 27.584 149.048 29.312C149.048 31.424 148.488 33.168 147.368 34.544C146.28 35.92 144.84 36.96 143.048 37.664C141.256 38.336 139.288 38.672 137.144 38.672C135.16 38.672 133.576 38.48 132.392 38.096C131.208 37.712 130.216 37.312 129.416 36.896C128.712 36.448 128.168 36.224 127.784 36.224C127.464 36.224 127.224 36.4 127.064 36.752C126.936 37.104 126.824 37.632 126.728 38.336H125.624C125.688 37.568 125.72 36.672 125.72 35.648C125.752 34.624 125.768 33.296 125.768 31.664C125.8 30 125.816 27.904 125.816 25.376H126.92C127.048 27.488 127.4 29.472 127.976 31.328C128.584 33.152 129.496 34.624 130.712 35.744C131.96 36.864 133.608 37.424 135.656 37.424C136.776 37.424 137.768 37.232 138.632 36.848C139.528 36.432 140.248 35.824 140.792 35.024C141.336 34.224 141.608 33.232 141.608 32.048C141.608 30.704 141.288 29.536 140.648 28.544C140.04 27.552 139.192 26.624 138.104 25.76C137.048 24.896 135.816 24.016 134.408 23.12C132.904 22.128 131.496 21.136 130.184 20.144C128.872 19.152 127.816 18.016 127.016 16.736C126.248 15.456 125.864 13.936 125.864 12.176C125.864 10.16 126.36 8.51199 127.352 7.23199C128.376 5.91999 129.704 4.95999 131.336 4.35199C133 3.71199 134.76 3.39199 136.616 3.39199Z" fill="#24201F"/>
<path d="M158.792 38.336C157.352 38.336 156.152 38.064 155.192 37.52C154.232 36.976 153.528 36.256 153.08 35.36C152.632 34.432 152.408 33.424 152.408 32.336C152.408 30.96 152.712 29.84 153.32 28.976C153.96 28.112 154.776 27.408 155.768 26.864C156.76 26.32 157.8 25.872 158.888 25.52C160.008 25.168 161.064 24.832 162.056 24.512C163.08 24.16 163.896 23.76 164.504 23.312C165.144 22.832 165.464 22.224 165.464 21.488V17.744C165.464 16.912 165.32 16.176 165.032 15.536C164.776 14.864 164.36 14.352 163.784 14C163.24 13.648 162.52 13.472 161.624 13.472C160.984 13.472 160.344 13.568 159.704 13.76C159.064 13.92 158.536 14.208 158.12 14.624C159.016 14.944 159.704 15.44 160.184 16.112C160.696 16.752 160.952 17.488 160.952 18.32C160.952 19.408 160.568 20.272 159.8 20.912C159.064 21.552 158.184 21.872 157.16 21.872C156.008 21.872 155.128 21.52 154.52 20.816C153.944 20.08 153.656 19.2 153.656 18.176C153.656 17.248 153.88 16.48 154.328 15.872C154.808 15.264 155.464 14.688 156.296 14.144C157.192 13.632 158.264 13.232 159.512 12.944C160.792 12.656 162.168 12.512 163.64 12.512C165.112 12.512 166.44 12.672 167.624 12.992C168.808 13.28 169.8 13.824 170.6 14.624C171.336 15.36 171.816 16.272 172.04 17.36C172.264 18.416 172.376 19.76 172.376 21.392V34.448C172.376 35.248 172.456 35.808 172.616 36.128C172.776 36.416 173.048 36.56 173.432 36.56C173.72 36.56 173.992 36.48 174.248 36.32C174.536 36.16 174.84 35.968 175.16 35.744L175.64 36.56C174.968 37.136 174.184 37.584 173.288 37.904C172.424 38.192 171.448 38.336 170.36 38.336C169.176 38.336 168.232 38.176 167.528 37.856C166.824 37.504 166.312 37.04 165.992 36.464C165.704 35.888 165.56 35.216 165.56 34.448C164.792 35.664 163.864 36.624 162.776 37.328C161.688 38 160.36 38.336 158.792 38.336ZM162.2 35.264C162.84 35.264 163.416 35.12 163.928 34.832C164.472 34.512 164.984 34 165.464 33.296V23.456C165.176 23.936 164.776 24.368 164.264 24.752C163.752 25.136 163.208 25.536 162.632 25.952C162.056 26.336 161.496 26.768 160.952 27.248C160.44 27.728 160.024 28.32 159.704 29.024C159.384 29.728 159.224 30.576 159.224 31.568C159.224 32.816 159.496 33.744 160.04 34.352C160.584 34.96 161.304 35.264 162.2 35.264Z" fill="#24201F"/>
<path d="M194.867 12.512C196.211 12.512 197.299 12.688 198.131 13.04C198.995 13.36 199.667 13.808 200.147 14.384C200.659 14.992 201.027 15.776 201.251 16.736C201.507 17.696 201.635 18.992 201.635 20.624V33.536C201.635 34.88 201.859 35.792 202.307 36.272C202.787 36.752 203.587 36.992 204.707 36.992V38C204.099 37.968 203.187 37.936 201.971 37.904C200.755 37.84 199.555 37.808 198.371 37.808C197.155 37.808 195.955 37.84 194.771 37.904C193.619 37.936 192.739 37.968 192.131 38V36.992C193.091 36.992 193.763 36.752 194.147 36.272C194.531 35.792 194.723 34.88 194.723 33.536V18.608C194.723 17.808 194.643 17.12 194.483 16.544C194.323 15.936 194.035 15.472 193.619 15.152C193.203 14.8 192.579 14.624 191.747 14.624C190.883 14.624 190.083 14.864 189.347 15.344C188.643 15.824 188.067 16.496 187.619 17.36C187.203 18.192 186.995 19.136 186.995 20.192V33.536C186.995 34.88 187.187 35.792 187.571 36.272C187.987 36.752 188.659 36.992 189.587 36.992V38C189.011 37.968 188.163 37.936 187.043 37.904C185.955 37.84 184.819 37.808 183.635 37.808C182.419 37.808 181.171 37.84 179.891 37.904C178.611 37.936 177.651 37.968 177.011 38V36.992C178.131 36.992 178.915 36.752 179.363 36.272C179.843 35.792 180.083 34.88 180.083 33.536V18.416C180.083 16.976 179.859 15.92 179.411 15.248C178.995 14.544 178.195 14.192 177.011 14.192V13.184C178.035 13.28 179.027 13.328 179.987 13.328C181.331 13.328 182.579 13.28 183.731 13.184C184.915 13.056 186.003 12.88 186.995 12.656V16.976C187.795 15.344 188.883 14.192 190.259 13.52C191.635 12.848 193.171 12.512 194.867 12.512Z" fill="#24201F"/>
<path d="M216.24 5.31199V13.184H221.904V14.144H216.24V33.536C216.24 34.496 216.416 35.184 216.768 35.6C217.12 35.984 217.648 36.176 218.352 36.176C218.928 36.176 219.504 35.968 220.08 35.552C220.656 35.104 221.168 34.352 221.616 33.296L222.432 33.728C221.92 35.168 221.136 36.352 220.08 37.28C219.056 38.208 217.648 38.672 215.856 38.672C214.8 38.672 213.872 38.528 213.072 38.24C212.272 37.984 211.6 37.584 211.056 37.04C210.352 36.336 209.888 35.472 209.664 34.448C209.44 33.392 209.328 32.032 209.328 30.368V14.144H205.296V13.184H209.328V6.84799C210.672 6.84799 211.904 6.73599 213.024 6.51199C214.176 6.25599 215.248 5.85599 216.24 5.31199Z" fill="#24201F"/>
<path d="M229.611 0.799988C230.955 0.799988 232.011 1.13599 232.779 1.80799C233.579 2.44799 233.979 3.34399 233.979 4.49599C233.979 5.64799 233.579 6.55999 232.779 7.23199C232.011 7.87199 230.955 8.19199 229.611 8.19199C228.267 8.19199 227.195 7.87199 226.395 7.23199C225.627 6.55999 225.243 5.64799 225.243 4.49599C225.243 3.34399 225.627 2.44799 226.395 1.80799C227.195 1.13599 228.267 0.799988 229.611 0.799988ZM233.355 12.656V33.536C233.355 34.88 233.579 35.792 234.027 36.272C234.507 36.752 235.307 36.992 236.427 36.992V38C235.851 37.968 234.955 37.936 233.739 37.904C232.523 37.84 231.291 37.808 230.043 37.808C228.795 37.808 227.531 37.84 226.251 37.904C224.971 37.936 224.011 37.968 223.371 38V36.992C224.491 36.992 225.275 36.752 225.723 36.272C226.203 35.792 226.443 34.88 226.443 33.536V18.416C226.443 16.976 226.219 15.92 225.771 15.248C225.355 14.544 224.555 14.192 223.371 14.192V13.184C224.395 13.28 225.387 13.328 226.347 13.328C227.691 13.328 228.939 13.28 230.091 13.184C231.275 13.056 232.363 12.88 233.355 12.656Z" fill="#24201F"/>
<path d="M245.135 38.336C243.695 38.336 242.495 38.064 241.535 37.52C240.575 36.976 239.871 36.256 239.423 35.36C238.975 34.432 238.751 33.424 238.751 32.336C238.751 30.96 239.055 29.84 239.663 28.976C240.303 28.112 241.119 27.408 242.111 26.864C243.103 26.32 244.143 25.872 245.231 25.52C246.351 25.168 247.407 24.832 248.399 24.512C249.423 24.16 250.239 23.76 250.847 23.312C251.487 22.832 251.807 22.224 251.807 21.488V17.744C251.807 16.912 251.663 16.176 251.375 15.536C251.119 14.864 250.703 14.352 250.127 14C249.583 13.648 248.863 13.472 247.967 13.472C247.327 13.472 246.687 13.568 246.047 13.76C245.407 13.92 244.879 14.208 244.463 14.624C245.359 14.944 246.047 15.44 246.527 16.112C247.039 16.752 247.295 17.488 247.295 18.32C247.295 19.408 246.911 20.272 246.143 20.912C245.407 21.552 244.527 21.872 243.503 21.872C242.351 21.872 241.471 21.52 240.863 20.816C240.287 20.08 239.999 19.2 239.999 18.176C239.999 17.248 240.223 16.48 240.671 15.872C241.151 15.264 241.807 14.688 242.639 14.144C243.535 13.632 244.607 13.232 245.855 12.944C247.135 12.656 248.511 12.512 249.983 12.512C251.455 12.512 252.783 12.672 253.967 12.992C255.151 13.28 256.143 13.824 256.943 14.624C257.679 15.36 258.159 16.272 258.383 17.36C258.607 18.416 258.719 19.76 258.719 21.392V34.448C258.719 35.248 258.799 35.808 258.959 36.128C259.119 36.416 259.391 36.56 259.775 36.56C260.063 36.56 260.335 36.48 260.591 36.32C260.879 36.16 261.183 35.968 261.503 35.744L261.983 36.56C261.311 37.136 260.527 37.584 259.631 37.904C258.767 38.192 257.791 38.336 256.703 38.336C255.519 38.336 254.575 38.176 253.871 37.856C253.167 37.504 252.655 37.04 252.335 36.464C252.047 35.888 251.903 35.216 251.903 34.448C251.135 35.664 250.207 36.624 249.119 37.328C248.031 38 246.703 38.336 245.135 38.336ZM248.543 35.264C249.183 35.264 249.759 35.12 250.271 34.832C250.815 34.512 251.327 34 251.807 33.296V23.456C251.519 23.936 251.119 24.368 250.607 24.752C250.095 25.136 249.551 25.536 248.975 25.952C248.399 26.336 247.839 26.768 247.295 27.248C246.783 27.728 246.367 28.32 246.047 29.024C245.727 29.728 245.567 30.576 245.567 31.568C245.567 32.816 245.839 33.744 246.383 34.352C246.927 34.96 247.647 35.264 248.543 35.264Z" fill="#24201F"/>
<path d="M272.667 47.024C270.683 47.024 268.907 46.848 267.339 46.496C265.803 46.176 264.587 45.664 263.691 44.96C262.827 44.288 262.395 43.456 262.395 42.464C262.395 41.472 262.843 40.576 263.739 39.776C264.635 39.008 265.963 38.4 267.723 37.952L268.155 38.72C267.547 39.2 267.099 39.712 266.811 40.256C266.555 40.832 266.427 41.424 266.427 42.032C266.427 43.376 267.035 44.4 268.251 45.104C269.499 45.84 271.179 46.208 273.291 46.208C274.731 46.208 276.011 46.016 277.131 45.632C278.283 45.248 279.179 44.672 279.819 43.904C280.491 43.136 280.827 42.192 280.827 41.072C280.827 40.112 280.475 39.296 279.771 38.624C279.067 37.984 277.659 37.664 275.547 37.664H272.571C271.259 37.664 270.107 37.52 269.115 37.232C268.155 36.944 267.403 36.496 266.859 35.888C266.315 35.248 266.043 34.448 266.043 33.488C266.043 32.144 266.571 30.96 267.627 29.936C268.683 28.912 270.251 27.952 272.331 27.056L272.811 27.44C272.203 27.824 271.627 28.24 271.083 28.688C270.571 29.104 270.315 29.648 270.315 30.32C270.315 31.344 270.955 31.856 272.235 31.856H277.467C279.227 31.856 280.795 32.064 282.171 32.48C283.579 32.896 284.683 33.584 285.483 34.544C286.315 35.472 286.731 36.688 286.731 38.192C286.731 39.76 286.219 41.216 285.195 42.56C284.203 43.904 282.667 44.976 280.587 45.776C278.507 46.608 275.867 47.024 272.667 47.024ZM273.147 27.776C271.323 27.776 269.691 27.504 268.251 26.96C266.811 26.416 265.675 25.584 264.843 24.464C264.011 23.344 263.595 21.904 263.595 20.144C263.595 18.384 264.011 16.944 264.843 15.824C265.675 14.672 266.811 13.84 268.251 13.328C269.691 12.784 271.323 12.512 273.147 12.512C274.971 12.512 276.603 12.784 278.043 13.328C279.483 13.84 280.619 14.672 281.451 15.824C282.283 16.944 282.699 18.384 282.699 20.144C282.699 21.904 282.283 23.344 281.451 24.464C280.619 25.584 279.483 26.416 278.043 26.96C276.603 27.504 274.971 27.776 273.147 27.776ZM273.147 26.912C274.011 26.912 274.683 26.432 275.163 25.472C275.643 24.48 275.883 22.704 275.883 20.144C275.883 17.584 275.643 15.824 275.163 14.864C274.683 13.872 274.011 13.376 273.147 13.376C272.315 13.376 271.643 13.872 271.131 14.864C270.651 15.824 270.411 17.584 270.411 20.144C270.411 22.704 270.651 24.48 271.131 25.472C271.643 26.432 272.315 26.912 273.147 26.912ZM280.635 16.64L279.675 16.304C280.155 15.056 280.923 14.016 281.979 13.184C283.067 12.352 284.235 11.936 285.483 11.936C286.507 11.936 287.275 12.224 287.787 12.8C288.331 13.344 288.603 14.064 288.603 14.96C288.603 15.92 288.347 16.64 287.835 17.12C287.323 17.568 286.747 17.792 286.107 17.792C285.563 17.792 285.051 17.6 284.571 17.216C284.123 16.832 283.867 16.256 283.803 15.488C283.739 14.688 284.011 13.664 284.619 12.416L284.955 12.704C283.739 13.152 282.827 13.68 282.219 14.288C281.611 14.864 281.083 15.648 280.635 16.64Z" fill="#24201F"/>
<path d="M301.52 12.512C303.856 12.512 305.904 12.944 307.664 13.808C309.424 14.672 310.8 16.064 311.792 17.984C312.784 19.904 313.28 22.448 313.28 25.616C313.28 28.784 312.784 31.328 311.792 33.248C310.8 35.136 309.424 36.512 307.664 37.376C305.904 38.24 303.856 38.672 301.52 38.672C299.248 38.672 297.216 38.24 295.424 37.376C293.664 36.512 292.272 35.136 291.248 33.248C290.256 31.328 289.76 28.784 289.76 25.616C289.76 22.448 290.256 19.904 291.248 17.984C292.272 16.064 293.664 14.672 295.424 13.808C297.216 12.944 299.248 12.512 301.52 12.512ZM301.52 13.472C300.24 13.472 299.168 14.432 298.304 16.352C297.44 18.24 297.008 21.328 297.008 25.616C297.008 29.904 297.44 32.992 298.304 34.88C299.168 36.768 300.24 37.712 301.52 37.712C302.832 37.712 303.904 36.768 304.736 34.88C305.6 32.992 306.032 29.904 306.032 25.616C306.032 21.328 305.6 18.24 304.736 16.352C303.904 14.432 302.832 13.472 301.52 13.472Z" fill="#24201F"/>
</svg>
